<svg width="1200" height="470" viewBox="0 0 1200 470" fill="none" xmlns="http://www.w3.org/2000/svg">
<path d="M84.6764 318.496V378.381H-12.6158V318.496H84.6764ZM-4.36125 318.496V469.744H-30.516L-32 318.496H-4.36125ZM104.71 318.496L102.298 470H76.7928V318.496H104.71ZM69.373 5.76153V65.9027H4.35702V5.76153H69.373ZM89.221 5.76153V378.381H61.4895V5.76153H89.221ZM0.925362 5.76153H28.7496L25.1325 157.522C24.576 182.602 23.5867 204.782 22.1645 224.061C20.8042 243.17 19.1348 259.975 17.1562 274.477C15.2394 288.98 13.1062 301.69 10.7566 312.609C8.40699 323.358 5.93373 332.742 3.3368 340.761C0.739864 348.609 -1.88798 355.604 -4.54674 361.746C-7.2055 367.717 -9.80243 373.262 -12.3375 378.381H-28.2901V318.496H-22.076C-20.2829 314.401 -18.397 308.771 -16.4184 301.605C-14.378 294.439 -12.4612 284.799 -10.6681 272.686C-8.81313 260.402 -7.2055 244.876 -5.84521 226.109C-4.42308 207.341 -3.37194 184.479 -2.69179 157.522L0.925362 5.76153Z" fill="url(#paint0_linear_115_7048)"/>
<path d="M208.791 183.37V201.028C208.791 229.35 207.4 254.772 204.617 277.293C201.835 299.813 197.909 319.007 192.838 334.874C187.768 350.571 181.709 362.599 174.66 370.959C167.673 379.319 159.913 383.499 151.38 383.499C142.909 383.499 135.15 379.319 128.101 370.959C121.114 362.599 115.054 350.571 109.922 334.874C104.79 319.007 100.802 299.813 97.9578 277.293C95.1754 254.772 93.7842 229.35 93.7842 201.028V183.37C93.7842 154.877 95.1754 129.456 97.9578 107.106C100.74 84.5848 104.667 65.3909 109.737 49.5238C114.869 33.6568 120.928 21.5433 127.915 13.1832C134.964 4.82316 142.724 0.643127 151.195 0.643127C159.728 0.643127 167.487 4.82316 174.474 13.1832C181.523 21.5433 187.583 33.6568 192.653 49.5238C197.785 65.3909 201.742 84.5848 204.525 107.106C207.369 129.456 208.791 154.877 208.791 183.37ZM180.689 201.028V182.858C180.689 163.067 180.039 145.664 178.741 130.65C177.442 115.636 175.526 103.011 172.991 92.7743C170.455 82.5375 167.364 74.8599 163.716 69.7415C160.068 64.4525 155.894 61.808 151.195 61.808C146.496 61.808 142.322 64.4525 138.674 69.7415C135.088 74.8599 132.027 82.5375 129.492 92.7743C127.019 103.011 125.133 115.636 123.834 130.65C122.536 145.664 121.887 163.067 121.887 182.858V201.028C121.887 220.649 122.536 238.051 123.834 253.236C125.133 268.25 127.05 280.961 129.585 291.368C132.12 301.605 135.211 309.368 138.859 314.657C142.508 319.946 146.681 322.59 151.38 322.59C156.08 322.59 160.253 319.946 163.901 314.657C167.549 309.368 170.61 301.605 173.083 291.368C175.557 280.961 177.442 268.25 178.741 253.236C180.039 238.051 180.689 220.649 180.689 201.028Z" fill="url(#paint1_linear_115_7048)"/>
<path d="M230.698 5.76153L256.111 135.769L281.524 5.76153H313.336L274.104 190.536L314.356 378.381H282.266L256.111 245.814L229.956 378.381H197.68L238.025 190.536L198.7 5.76153H230.698Z" fill="url(#paint2_linear_115_7048)"/>
<path d="M417.881 183.37V201.028C417.881 229.35 416.49 254.772 413.707 277.293C410.925 299.813 406.999 319.007 401.928 334.874C396.858 350.571 390.799 362.599 383.75 370.959C376.763 379.319 369.003 383.499 360.47 383.499C351.999 383.499 344.239 379.319 337.191 370.959C330.204 362.599 324.144 350.571 319.012 334.874C313.88 319.007 309.892 299.813 307.048 277.293C304.265 254.772 302.874 229.35 302.874 201.028V183.37C302.874 154.877 304.265 129.456 307.048 107.106C309.83 84.5848 313.757 65.3909 318.827 49.5238C323.959 33.6568 330.018 21.5433 337.005 13.1832C344.054 4.82316 351.814 0.643127 360.285 0.643127C368.818 0.643127 376.577 4.82316 383.564 13.1832C390.613 21.5433 396.673 33.6568 401.743 49.5238C406.875 65.3909 410.832 84.5848 413.615 107.106C416.459 129.456 417.881 154.877 417.881 183.37ZM389.779 201.028V182.858C389.779 163.067 389.129 145.664 387.831 130.65C386.532 115.636 384.616 103.011 382.08 92.7743C379.545 82.5375 376.454 74.8599 372.806 69.7415C369.158 64.4525 364.984 61.808 360.285 61.808C355.586 61.808 351.412 64.4525 347.764 69.7415C344.178 74.8599 341.117 82.5375 338.582 92.7743C336.109 103.011 334.223 115.636 332.924 130.65C331.626 145.664 330.977 163.067 330.977 182.858V201.028C330.977 220.649 331.626 238.051 332.924 253.236C334.223 268.25 336.14 280.961 338.675 291.368C341.21 301.605 344.301 309.368 347.949 314.657C351.597 319.946 355.771 322.59 360.47 322.59C365.17 322.59 369.343 319.946 372.991 314.657C376.639 309.368 379.7 301.605 382.173 291.368C384.646 280.961 386.532 268.25 387.831 253.236C389.129 238.051 389.779 220.649 389.779 201.028Z" fill="url(#paint3_linear_115_7048)"/>
<path d="M522.89 318.496V378.381H425.598V318.496H522.89ZM433.852 318.496V469.744H407.697L406.213 318.496H433.852ZM542.923 318.496L540.512 470H515.006V318.496H542.923ZM507.586 5.76153V65.9027H442.57V5.76153H507.586ZM527.434 5.76153V378.381H499.703V5.76153H527.434ZM439.139 5.76153H466.963L463.346 157.522C462.789 182.602 461.8 204.782 460.378 224.061C459.018 243.17 457.348 259.975 455.37 274.477C453.453 288.98 451.32 301.69 448.97 312.609C446.62 323.358 444.147 332.742 441.55 340.761C438.953 348.609 436.325 355.604 433.667 361.746C431.008 367.717 428.411 373.262 425.876 378.381H409.923V318.496H416.137C417.93 314.401 419.816 308.771 421.795 301.605C423.835 294.439 425.752 284.799 427.545 272.686C429.4 260.402 431.008 244.876 432.368 226.109C433.79 207.341 434.841 184.479 435.522 157.522L439.139 5.76153Z" fill="url(#paint4_linear_115_7048)"/>
<path d="M644.89 254.772H672.621C672.065 279.852 669.561 302.117 665.109 321.567C660.719 341.017 654.566 356.201 646.652 367.12C638.799 378.04 629.339 383.499 618.271 383.499C609.615 383.499 601.855 379.405 594.992 371.215C588.128 362.855 582.254 350.912 577.37 335.386C572.547 319.86 568.868 301.093 566.333 279.084C563.798 257.075 562.53 232.421 562.53 205.123V179.275C562.53 151.977 563.828 127.323 566.425 105.314C569.084 83.1346 572.856 64.2819 577.741 48.7561C582.687 33.2303 588.592 21.2873 595.455 12.9273C602.319 4.56724 609.986 0.387207 618.457 0.387207C629.71 0.387207 639.201 6.01745 646.93 17.2779C654.721 28.5384 660.75 44.0642 665.016 63.8553C669.344 83.6465 671.941 106.167 672.807 131.418H644.983C644.673 116.404 643.591 103.694 641.736 93.2861C639.881 82.7081 637.068 74.7746 633.296 69.4856C629.586 64.0259 624.64 61.2961 618.457 61.2961C613.819 61.2961 609.769 63.6847 606.307 68.4619C602.844 73.2391 599.938 80.4901 597.589 90.2151C595.239 99.94 593.477 112.224 592.302 127.068C591.189 141.74 590.633 158.972 590.633 178.763V205.123C590.633 224.402 591.158 241.378 592.209 256.051C593.26 270.553 594.868 282.837 597.032 292.904C599.258 302.799 602.102 310.306 605.565 315.425C609.089 320.372 613.325 322.846 618.271 322.846C624.083 322.846 628.875 320.287 632.647 315.169C636.419 310.05 639.294 302.458 641.273 292.392C643.313 282.326 644.519 269.786 644.89 254.772Z" fill="url(#paint5_linear_115_7048)"/>
<path d="M778.483 254.772H806.215C805.658 279.852 803.154 302.117 798.702 321.567C794.312 341.017 788.16 356.201 780.245 367.12C772.393 378.04 762.933 383.499 751.865 383.499C743.208 383.499 735.448 379.405 728.585 371.215C721.722 362.855 715.848 350.912 710.963 335.386C706.14 319.86 702.461 301.093 699.926 279.084C697.391 257.075 696.123 232.421 696.123 205.123V179.275C696.123 151.977 697.422 127.323 700.019 105.314C702.678 83.1346 706.449 64.2819 711.334 48.7561C716.281 33.2303 722.186 21.2873 729.049 12.9273C735.912 4.56724 743.579 0.387207 752.05 0.387207C763.304 0.387207 772.795 6.01745 780.524 17.2779C788.315 28.5384 794.343 44.0642 798.609 63.8553C802.938 83.6465 805.535 106.167 806.4 131.418H778.576C778.267 116.404 777.185 103.694 775.33 93.2861C773.475 82.7081 770.662 74.7746 766.89 69.4856C763.18 64.0259 758.233 61.2961 752.05 61.2961C747.413 61.2961 743.363 63.6847 739.9 68.4619C736.438 73.2391 733.532 80.4901 731.182 90.2151C728.832 99.94 727.07 112.224 725.895 127.068C724.782 141.74 724.226 158.972 724.226 178.763V205.123C724.226 224.402 724.752 241.378 725.803 256.051C726.854 270.553 728.461 282.837 730.626 292.904C732.852 302.799 735.696 310.306 739.158 315.425C742.683 320.372 746.918 322.846 751.865 322.846C757.677 322.846 762.469 320.287 766.241 315.169C770.012 310.05 772.888 302.458 774.866 292.392C776.907 282.326 778.112 269.786 778.483 254.772Z" fill="url(#paint6_linear_115_7048)"/>
<path d="M860.398 69.4856L823.67 378.381H794.083L844.26 5.76153H863.088L860.398 69.4856ZM890.912 378.381L854.091 69.4856L851.123 5.76153H870.136L920.591 378.381H890.912ZM889.242 239.672V299.813H817.919V239.672H889.242Z" fill="url(#paint7_linear_115_7048)"/>
<path d="M940.921 257.587L995.179 5.76153H1023V378.381H995.179V126.556L940.921 378.381H913.097V5.76153H940.921V257.587Z" fill="url(#paint8_linear_115_7048)"/>
<path d="M1088.5 5.76153V378.381H1060.77V5.76153H1088.5ZM1130.05 5.76153V65.9027H1019.87V5.76153H1130.05Z" fill="url(#paint9_linear_115_7048)"/>
<path d="M1171.81 69.4856L1135.08 378.381H1105.49L1155.67 5.76153H1174.5L1171.81 69.4856ZM1202.32 378.381L1165.5 69.4856L1162.53 5.76153H1181.55L1232 378.381H1202.32ZM1200.65 239.672V299.813H1129.33V239.672H1200.65Z" fill="url(#paint10_linear_115_7048)"/>
<defs>
<linearGradient id="paint0_linear_115_7048" x1="600" y1="-162.5" x2="600" y2="536.5" gradientUnits="userSpaceOnUse">
<stop stop-color="#191919"/>
<stop offset="1" stop-color="#1A1A1A"/>
</linearGradient>
<linearGradient id="paint1_linear_115_7048" x1="600" y1="-162.5" x2="600" y2="536.5" gradientUnits="userSpaceOnUse">
<stop stop-color="#191919"/>
<stop offset="1" stop-color="#1A1A1A"/>
</linearGradient>
<linearGradient id="paint2_linear_115_7048" x1="600" y1="-162.5" x2="600" y2="536.5" gradientUnits="userSpaceOnUse">
<stop stop-color="#191919"/>
<stop offset="1" stop-color="#1A1A1A"/>
</linearGradient>
<linearGradient id="paint3_linear_115_7048" x1="600" y1="-162.5" x2="600" y2="536.5" gradientUnits="userSpaceOnUse">
<stop stop-color="#191919"/>
<stop offset="1" stop-color="#1A1A1A"/>
</linearGradient>
<linearGradient id="paint4_linear_115_7048" x1="600" y1="-162.5" x2="600" y2="536.5" gradientUnits="userSpaceOnUse">
<stop stop-color="#191919"/>
<stop offset="1" stop-color="#1A1A1A"/>
</linearGradient>
<linearGradient id="paint5_linear_115_7048" x1="600" y1="-162.5" x2="600" y2="536.5" gradientUnits="userSpaceOnUse">
<stop stop-color="#191919"/>
<stop offset="1" stop-color="#1A1A1A"/>
</linearGradient>
<linearGradient id="paint6_linear_115_7048" x1="600" y1="-162.5" x2="600" y2="536.5" gradientUnits="userSpaceOnUse">
<stop stop-color="#191919"/>
<stop offset="1" stop-color="#1A1A1A"/>
</linearGradient>
<linearGradient id="paint7_linear_115_7048" x1="600" y1="-162.5" x2="600" y2="536.5" gradientUnits="userSpaceOnUse">
<stop stop-color="#191919"/>
<stop offset="1" stop-color="#1A1A1A"/>
</linearGradient>
<linearGradient id="paint8_linear_115_7048" x1="600" y1="-162.5" x2="600" y2="536.5" gradientUnits="userSpaceOnUse">
<stop stop-color="#191919"/>
<stop offset="1" stop-color="#1A1A1A"/>
</linearGradient>
<linearGradient id="paint9_linear_115_7048" x1="600" y1="-162.5" x2="600" y2="536.5" gradientUnits="userSpaceOnUse">
<stop stop-color="#191919"/>
<stop offset="1" stop-color="#1A1A1A"/>
</linearGradient>
<linearGradient id="paint10_linear_115_7048" x1="600" y1="-162.5" x2="600" y2="536.5" gradientUnits="userSpaceOnUse">
<stop stop-color="#191919"/>
<stop offset="1" stop-color="#1A1A1A"/>
</linearGradient>
</defs>
</svg>
